<?xml version="1.0" encoding="utf-8"?>
<!-- Generator: Adobe Illustrator 26.5.0, SVG Export Plug-In . SVG Version: 6.00 Build 0)  -->
<svg version="1.1" id="Слой_1" xmlns="http://www.w3.org/2000/svg" xmlns:xlink="http://www.w3.org/1999/xlink" x="0px" y="0px"
	 viewBox="0 0 1000 1000" style="enable-background:new 0 0 1000 1000;" xml:space="preserve">
<style type="text/css">
	.st0{fill:#A67C52;}
	.st1{fill:#998675;}
	.st2{fill:#B0864C;}
	.st3{fill:#0080BB;}
	.st4{fill:#005A7C;}
	.st5{fill:#0098DD;}
	.st6{display:none;fill:#006D9E;}
	.st7{fill:#FFFFFF;}
	.st8{fill:#E6E6E6;}
	.st9{display:none;}
	.st10{display:inline;}
	.st11{display:inline;fill:none;stroke:#0098DD;stroke-width:9;stroke-linecap:round;stroke-linejoin:round;stroke-miterlimit:10;}
	.st12{font-family:'RubikMonoOne-Regular';}
	.st13{font-size:43.8007px;}
</style>
<g>
	<g>
		<g>
			<g>
				<polygon class="st0" points="352.38,600.07 351.82,662.46 357.26,662.46 367.08,600.07 				"/>
				<polygon class="st1" points="354.56,662.46 357.26,662.46 367.08,600.07 363.21,600.07 				"/>
			</g>
			<g>
				<polygon class="st1" points="786.02,600.07 796.38,662.46 801.82,662.46 800.72,600.07 				"/>
				<polygon class="st2" points="799.12,662.46 801.82,662.46 800.72,600.07 796.85,600.07 				"/>
			</g>
			<path class="st3" d="M809.01,582.93H342.69c-2.45,0-4.44-1.99-4.44-4.44V399.45c0-25.3,20.51-45.81,45.81-45.81h383.59
				c25.3,0,45.81,20.51,45.81,45.81v179.04C813.46,580.94,811.47,582.93,809.01,582.93z"/>
			<path class="st4" d="M843.97,443.81L843.97,443.81c-54.31,0-106.87,21.43-117.39,47.86l-29.84,74.96l-238.22,4.47l-32.48-81.59
				c-10.52-26.43-63.08-47.86-117.39-47.86h0c-16.74,0-27.68,6.61-24.44,14.75l53.61,135.44c0.95,2.4,2.2,4.59,3.7,6.59
				c5.88,14,16.53,23.35,28.7,23.35h329.06c1.81,0.18,3.71,0.27,5.7,0.27h0c7.46,0,14.68-0.08,21.62-0.27h64.42
				c11.79,0,17-15.11,21.44-32.28l55.95-130.95C871.66,450.41,860.71,443.81,843.97,443.81z"/>
			<g>
				<path class="st5" d="M551.27,583.33H380.02c-12.72,0-23.03-10.31-23.03-23.03v-29.13c0-12.72,10.31-23.03,23.03-23.03h171.26
					c12.72,0,23.03,10.31,23.03,23.03v29.13C574.31,573.02,564,583.33,551.27,583.33z"/>
				<path class="st5" d="M378.14,508.14c16.19-5.69,35.22-10.69,56.71-13.24c49.05-5.82,90.23,3.55,118.3,13.24H378.14z"/>
			</g>
			<g>
				<path class="st5" d="M770.23,583.33H597.34c-12.72,0-23.03-10.31-23.03-23.03v-29.13c0-12.72,10.31-23.03,23.03-23.03h172.89
					c12.72,0,23.03,10.31,23.03,23.03v29.13C793.26,573.02,782.95,583.33,770.23,583.33z"/>
				<path class="st3" d="M793.26,536.26c-22.37,8.79-61.06,20.85-110.51,20.68c-48.36-0.17-89.8-9.42-108.45-27.35
					c-17.28,16.67-60.6,27.52-109.69,27.35c-48-0.17-85.6-11.96-107.64-20.68c0,5.56-1.1,21.11-1.1,26.67
					c0,11.27,1.6,20.41,22.26,20.41h175.01c10.13,0,19.42-3.24,21.5-12.41c2.25,9.2,10.74,12.41,20.98,12.41h176.32
					c11.77,0,22.42-0.51,22.42-20.34L793.26,536.26z"/>
				<path class="st5" d="M595.62,508.14c16.31-5.69,35.49-10.69,57.13-13.24c49.42-5.82,90.91,3.55,119.19,13.24H595.62z"/>
			</g>
		</g>
		<g>
			<g>
				<g>
					<g>
						<g>
							<path class="st5" d="M429.8,455.53c-1.64-2.44-3.73-5.34-6.35-8.54c-2.99-3.65-5.85-6.72-8.26-9.13
								c2.36,2.39,5.41,5.28,9.1,8.29c3.24,2.65,6.16,4.73,8.57,6.32C431.84,453.49,430.82,454.51,429.8,455.53z"/>
							<path class="st5" d="M433.1,452.71c1.64,2.44,3.73,5.34,6.35,8.54c2.99,3.65,5.85,6.72,8.26,9.13
								c-2.36-2.39-5.41-5.28-9.1-8.29c-3.24-2.65-6.16-4.73-8.57-6.32C431.06,454.75,432.08,453.73,433.1,452.71z"/>
							<path class="st5" d="M429.84,452.32c2.04-1.15,4.46-2.66,7.06-4.62c2.98-2.23,5.41-4.45,7.3-6.34
								c-1.88,1.85-4.12,4.27-6.37,7.27c-1.98,2.64-3.47,5.07-4.59,7.1C432.12,454.59,430.98,453.46,429.84,452.32z"/>
							<path class="st5" d="M433.06,455.92c-2.04,1.15-4.46,2.66-7.06,4.62c-2.98,2.23-5.41,4.45-7.3,6.34
								c1.88-1.85,4.12-4.27,6.37-7.27c1.98-2.64,3.47-5.07,4.59-7.09C430.79,453.65,431.93,454.78,433.06,455.92z"/>
							<path class="st4" d="M433.63,454.17c0,1.34-0.98,2.43-2.18,2.43s-2.18-1.09-2.18-2.43c0-1.34,0.98-2.43,2.18-2.43
								S433.63,452.83,433.63,454.17z"/>
						</g>
						<g>
							<path class="st5" d="M465.24,455.53c-1.64-2.44-3.73-5.34-6.35-8.54c-2.99-3.65-5.85-6.72-8.26-9.13
								c2.36,2.39,5.41,5.28,9.1,8.29c3.24,2.65,6.16,4.73,8.57,6.32C467.28,453.49,466.26,454.51,465.24,455.53z"/>
							<path class="st5" d="M468.54,452.71c1.64,2.44,3.73,5.34,6.35,8.54c2.99,3.65,5.85,6.72,8.26,9.13
								c-2.36-2.39-5.41-5.28-9.1-8.29c-3.24-2.65-6.16-4.73-8.57-6.32C466.5,454.75,467.52,453.73,468.54,452.71z"/>
							<path class="st5" d="M465.28,452.32c2.04-1.15,4.46-2.66,7.06-4.62c2.98-2.23,5.41-4.45,7.3-6.34
								c-1.88,1.85-4.12,4.27-6.37,7.27c-1.98,2.64-3.47,5.07-4.59,7.1C467.56,454.59,466.42,453.46,465.28,452.32z"/>
							<path class="st5" d="M468.5,455.92c-2.04,1.15-4.46,2.66-7.06,4.62c-2.98,2.23-5.41,4.45-7.3,6.34
								c1.88-1.85,4.12-4.27,6.37-7.27c1.98-2.64,3.47-5.07,4.59-7.09C466.23,453.65,467.37,454.78,468.5,455.92z"/>
							<path class="st4" d="M469.07,454.17c0,1.34-0.98,2.43-2.18,2.43c-1.2,0-2.18-1.09-2.18-2.43c0-1.34,0.98-2.43,2.18-2.43
								C468.1,451.75,469.07,452.83,469.07,454.17z"/>
						</g>
						<g>
							<path class="st5" d="M500.68,455.53c-1.64-2.44-3.73-5.34-6.35-8.54c-2.99-3.65-5.85-6.72-8.26-9.13
								c2.36,2.39,5.41,5.28,9.1,8.29c3.24,2.65,6.16,4.73,8.57,6.32C502.72,453.49,501.7,454.51,500.68,455.53z"/>
							<path class="st5" d="M503.98,452.71c1.64,2.44,3.73,5.34,6.35,8.54c2.99,3.65,5.85,6.72,8.26,9.13
								c-2.36-2.39-5.41-5.28-9.1-8.29c-3.24-2.65-6.16-4.73-8.57-6.32C501.94,454.75,502.96,453.73,503.98,452.71z"/>
							<path class="st5" d="M500.72,452.32c2.04-1.15,4.46-2.66,7.06-4.62c2.98-2.23,5.41-4.45,7.3-6.34
								c-1.88,1.85-4.12,4.27-6.37,7.27c-1.98,2.64-3.47,5.07-4.59,7.1C502.99,454.59,501.86,453.46,500.72,452.32z"/>
							<path class="st5" d="M503.94,455.92c-2.04,1.15-4.46,2.66-7.06,4.62c-2.98,2.23-5.41,4.45-7.3,6.34
								c1.88-1.85,4.12-4.27,6.37-7.27c1.98-2.64,3.47-5.07,4.59-7.09C501.67,453.65,502.8,454.78,503.94,455.92z"/>
							<path class="st4" d="M504.51,454.17c0,1.34-0.98,2.43-2.18,2.43c-1.2,0-2.18-1.09-2.18-2.43c0-1.34,0.98-2.43,2.18-2.43
								C503.53,451.75,504.51,452.83,504.51,454.17z"/>
						</g>
						<g>
							<path class="st5" d="M536.12,455.53c-1.64-2.44-3.73-5.34-6.35-8.54c-2.99-3.65-5.85-6.72-8.26-9.13
								c2.36,2.39,5.41,5.28,9.1,8.29c3.24,2.65,6.16,4.73,8.57,6.32C538.16,453.49,537.14,454.51,536.12,455.53z"/>
							<path class="st5" d="M539.42,452.71c1.64,2.44,3.73,5.34,6.35,8.54c2.99,3.65,5.85,6.72,8.26,9.13
								c-2.36-2.39-5.41-5.28-9.1-8.29c-3.24-2.65-6.16-4.73-8.57-6.32C537.38,454.75,538.4,453.73,539.42,452.71z"/>
							<path class="st5" d="M536.16,452.32c2.04-1.15,4.46-2.66,7.06-4.62c2.98-2.23,5.41-4.45,7.3-6.34
								c-1.88,1.85-4.12,4.27-6.37,7.27c-1.98,2.64-3.47,5.07-4.59,7.1C538.43,454.59,537.3,453.46,536.16,452.32z"/>
							<path class="st5" d="M539.38,455.92c-2.04,1.15-4.46,2.66-7.06,4.62c-2.98,2.23-5.41,4.45-7.3,6.34
								c1.88-1.85,4.12-4.27,6.37-7.27c1.98-2.64,3.47-5.07,4.59-7.09C537.11,453.65,538.24,454.78,539.38,455.92z"/>
							<path class="st4" d="M539.95,454.17c0,1.34-0.98,2.43-2.18,2.43c-1.2,0-2.18-1.09-2.18-2.43c0-1.34,0.98-2.43,2.18-2.43
								C538.97,451.75,539.95,452.83,539.95,454.17z"/>
						</g>
						<g>
							<path class="st5" d="M571.56,455.53c-1.64-2.44-3.73-5.34-6.35-8.54c-2.99-3.65-5.85-6.72-8.26-9.13
								c2.36,2.39,5.41,5.28,9.1,8.29c3.24,2.65,6.16,4.73,8.57,6.32C573.6,453.49,572.58,454.51,571.56,455.53z"/>
							<path class="st5" d="M574.86,452.71c1.64,2.44,3.73,5.34,6.35,8.54c2.99,3.65,5.85,6.72,8.26,9.13
								c-2.36-2.39-5.41-5.28-9.1-8.29c-3.24-2.65-6.16-4.73-8.57-6.32C572.82,454.75,573.84,453.73,574.86,452.71z"/>
							<path class="st5" d="M571.6,452.32c2.04-1.15,4.46-2.66,7.06-4.62c2.98-2.23,5.41-4.45,7.3-6.34
								c-1.88,1.85-4.12,4.27-6.37,7.27c-1.98,2.64-3.47,5.07-4.59,7.1C573.87,454.59,572.74,453.46,571.6,452.32z"/>
							<path class="st5" d="M574.82,455.92c-2.04,1.15-4.46,2.66-7.06,4.62c-2.98,2.23-5.41,4.45-7.3,6.34
								c1.88-1.85,4.12-4.27,6.37-7.27c1.98-2.64,3.47-5.07,4.59-7.1C572.55,453.65,573.68,454.78,574.82,455.92z"/>
							<path class="st4" d="M575.39,454.17c0,1.34-0.98,2.43-2.18,2.43s-2.18-1.09-2.18-2.43c0-1.34,0.98-2.43,2.18-2.43
								S575.39,452.83,575.39,454.17z"/>
						</g>
						<g>
							<path class="st5" d="M607,455.53c-1.64-2.44-3.73-5.34-6.35-8.54c-2.99-3.65-5.85-6.72-8.26-9.13
								c2.36,2.39,5.41,5.28,9.1,8.29c3.24,2.65,6.16,4.73,8.57,6.32C609.04,453.49,608.02,454.51,607,455.53z"/>
							<path class="st5" d="M610.3,452.71c1.64,2.44,3.73,5.34,6.35,8.54c2.99,3.65,5.85,6.72,8.26,9.13
								c-2.36-2.39-5.41-5.28-9.1-8.29c-3.24-2.65-6.16-4.73-8.57-6.32C608.26,454.75,609.28,453.73,610.3,452.71z"/>
							<path class="st5" d="M607.04,452.32c2.04-1.15,4.46-2.66,7.06-4.62c2.98-2.23,5.41-4.45,7.3-6.34
								c-1.88,1.85-4.12,4.27-6.37,7.27c-1.98,2.64-3.47,5.07-4.59,7.1C609.31,454.59,608.18,453.46,607.04,452.32z"/>
							<path class="st5" d="M610.26,455.92c-2.04,1.15-4.46,2.66-7.06,4.62c-2.98,2.23-5.41,4.45-7.3,6.34
								c1.88-1.85,4.12-4.27,6.37-7.27c1.98-2.64,3.47-5.07,4.59-7.1C607.99,453.65,609.12,454.78,610.26,455.92z"/>
							<path class="st4" d="M610.83,454.17c0,1.34-0.98,2.43-2.18,2.43s-2.18-1.09-2.18-2.43c0-1.34,0.98-2.43,2.18-2.43
								S610.83,452.83,610.83,454.17z"/>
						</g>
						<g>
							<path class="st5" d="M642.44,455.53c-1.64-2.44-3.73-5.34-6.35-8.54c-2.99-3.65-5.85-6.72-8.26-9.13
								c2.36,2.39,5.41,5.28,9.1,8.29c3.24,2.65,6.16,4.73,8.57,6.32C644.48,453.49,643.46,454.51,642.44,455.53z"/>
							<path class="st5" d="M645.74,452.71c1.64,2.44,3.73,5.34,6.35,8.54c2.99,3.65,5.85,6.72,8.26,9.13
								c-2.36-2.39-5.41-5.28-9.1-8.29c-3.24-2.65-6.16-4.73-8.57-6.32C643.7,454.75,644.72,453.73,645.74,452.71z"/>
							<path class="st5" d="M642.48,452.32c2.04-1.15,4.46-2.66,7.06-4.62c2.98-2.23,5.41-4.45,7.3-6.34
								c-1.88,1.85-4.12,4.27-6.37,7.27c-1.98,2.64-3.47,5.07-4.59,7.1C644.75,454.59,643.61,453.46,642.48,452.32z"/>
							<path class="st5" d="M645.7,455.92c-2.04,1.15-4.46,2.66-7.06,4.62c-2.98,2.23-5.41,4.45-7.3,6.34
								c1.88-1.85,4.12-4.27,6.37-7.27c1.98-2.64,3.47-5.07,4.59-7.1C643.42,453.65,644.56,454.78,645.7,455.92z"/>
							<path class="st4" d="M646.27,454.17c0,1.34-0.98,2.43-2.18,2.43s-2.18-1.09-2.18-2.43c0-1.34,0.98-2.43,2.18-2.43
								S646.27,452.83,646.27,454.17z"/>
						</g>
						<g>
							<path class="st5" d="M677.88,455.53c-1.64-2.44-3.73-5.34-6.35-8.54c-2.99-3.65-5.85-6.72-8.26-9.13
								c2.36,2.39,5.41,5.28,9.1,8.29c3.24,2.65,6.16,4.73,8.57,6.32C679.92,453.49,678.9,454.51,677.88,455.53z"/>
							<path class="st5" d="M681.18,452.71c1.64,2.44,3.73,5.34,6.35,8.54c2.99,3.65,5.85,6.72,8.26,9.13
								c-2.36-2.39-5.41-5.28-9.1-8.29c-3.24-2.65-6.16-4.73-8.57-6.32C679.14,454.75,680.16,453.73,681.18,452.71z"/>
							<path class="st5" d="M677.92,452.32c2.04-1.15,4.46-2.66,7.06-4.62c2.98-2.23,5.41-4.45,7.3-6.34
								c-1.88,1.85-4.12,4.27-6.37,7.27c-1.98,2.64-3.47,5.07-4.59,7.1C680.19,454.59,679.05,453.46,677.92,452.32z"/>
							<path class="st5" d="M681.13,455.92c-2.04,1.15-4.46,2.66-7.06,4.62c-2.98,2.23-5.41,4.45-7.3,6.34
								c1.88-1.85,4.12-4.27,6.37-7.27c1.98-2.64,3.47-5.07,4.59-7.1C678.86,453.65,680,454.78,681.13,455.92z"/>
							<path class="st4" d="M681.7,454.17c0,1.34-0.98,2.43-2.18,2.43s-2.18-1.09-2.18-2.43c0-1.34,0.98-2.43,2.18-2.43
								S681.7,452.83,681.7,454.17z"/>
						</g>
						<g>
							<path class="st5" d="M713.31,455.53c-1.64-2.44-3.73-5.34-6.35-8.54c-2.99-3.65-5.85-6.72-8.26-9.13
								c2.36,2.39,5.41,5.28,9.1,8.29c3.24,2.65,6.16,4.73,8.57,6.32C715.35,453.49,714.33,454.51,713.31,455.53z"/>
							<path class="st5" d="M716.62,452.71c1.64,2.44,3.73,5.34,6.35,8.54c2.99,3.65,5.85,6.72,8.26,9.13
								c-2.36-2.39-5.41-5.28-9.1-8.29c-3.24-2.65-6.16-4.73-8.57-6.32C714.58,454.75,715.6,453.73,716.62,452.71z"/>
							<path class="st5" d="M713.36,452.32c2.04-1.15,4.46-2.66,7.06-4.62c2.98-2.23,5.41-4.45,7.3-6.34
								c-1.88,1.85-4.12,4.27-6.37,7.27c-1.98,2.64-3.47,5.07-4.59,7.1C715.63,454.59,714.49,453.46,713.36,452.32z"/>
							<path class="st5" d="M716.57,455.92c-2.04,1.15-4.46,2.66-7.06,4.62c-2.98,2.23-5.41,4.45-7.3,6.34
								c1.88-1.85,4.12-4.27,6.37-7.27c1.98-2.64,3.47-5.07,4.59-7.1C714.3,453.65,715.44,454.78,716.57,455.92z"/>
							<path class="st4" d="M717.14,454.17c0,1.34-0.98,2.43-2.18,2.43s-2.18-1.09-2.18-2.43c0-1.34,0.98-2.43,2.18-2.43
								S717.14,452.83,717.14,454.17z"/>
						</g>
					</g>
				</g>
			</g>
			<g>
				<g>
					<g>
						<g>
							<path class="st5" d="M389.72,394.06c-1.28-1.91-2.92-4.18-4.97-6.69c-2.34-2.86-4.58-5.26-6.47-7.14
								c1.85,1.87,4.24,4.13,7.12,6.49c2.53,2.07,4.82,3.7,6.71,4.95C391.31,392.46,390.52,393.26,389.72,394.06z"/>
							<path class="st5" d="M392.3,391.85c1.28,1.91,2.92,4.18,4.97,6.69c2.34,2.86,4.58,5.26,6.47,7.14
								c-1.85-1.87-4.24-4.13-7.12-6.49c-2.53-2.07-4.82-3.7-6.71-4.95C390.71,393.45,391.5,392.65,392.3,391.85z"/>
							<path class="st5" d="M389.75,391.55c1.6-0.9,3.49-2.08,5.53-3.62c2.33-1.75,4.24-3.48,5.72-4.96
								c-1.47,1.44-3.22,3.34-4.99,5.69c-1.55,2.06-2.72,3.97-3.59,5.55C391.53,393.33,390.64,392.44,389.75,391.55z"/>
							<path class="st5" d="M392.27,394.36c-1.6,0.9-3.49,2.08-5.53,3.62c-2.33,1.75-4.24,3.48-5.72,4.96
								c1.47-1.44,3.22-3.34,4.99-5.69c1.55-2.06,2.72-3.97,3.59-5.55C390.49,392.59,391.38,393.48,392.27,394.36z"/>
							<path class="st4" d="M393.19,393.01c0,1.34-0.98,2.43-2.18,2.43c-1.2,0-2.18-1.09-2.18-2.43c0-1.34,0.98-2.43,2.18-2.43
								C392.21,390.58,393.19,391.67,393.19,393.01z"/>
						</g>
						<g>
							<path class="st5" d="M426.17,394.06c-1.28-1.91-2.92-4.18-4.97-6.69c-2.34-2.86-4.58-5.26-6.47-7.14
								c1.85,1.87,4.24,4.13,7.12,6.49c2.53,2.07,4.82,3.7,6.71,4.95C427.76,392.46,426.97,393.26,426.17,394.06z"/>
							<path class="st5" d="M428.75,391.85c1.28,1.91,2.92,4.18,4.97,6.69c2.34,2.86,4.58,5.26,6.47,7.14
								c-1.85-1.87-4.24-4.13-7.12-6.49c-2.53-2.07-4.82-3.7-6.71-4.95C427.16,393.45,427.95,392.65,428.75,391.85z"/>
							<path class="st5" d="M426.2,391.55c1.6-0.9,3.49-2.08,5.53-3.62c2.33-1.75,4.24-3.48,5.72-4.96
								c-1.47,1.44-3.22,3.34-4.99,5.69c-1.55,2.06-2.72,3.97-3.59,5.55C427.98,393.33,427.09,392.44,426.2,391.55z"/>
							<path class="st5" d="M428.72,394.36c-1.6,0.9-3.49,2.08-5.53,3.62c-2.33,1.75-4.24,3.48-5.72,4.96
								c1.47-1.44,3.22-3.34,4.99-5.69c1.55-2.06,2.72-3.97,3.59-5.55C426.94,392.59,427.83,393.48,428.72,394.36z"/>
							<path class="st4" d="M429.63,393.03c0,1.34-0.98,2.43-2.18,2.43c-1.2,0-2.18-1.09-2.18-2.43s0.98-2.43,2.18-2.43
								C428.65,390.6,429.63,391.69,429.63,393.03z"/>
						</g>
						<g>
							<path class="st5" d="M462.62,394.06c-1.28-1.91-2.92-4.18-4.97-6.69c-2.34-2.86-4.58-5.26-6.47-7.14
								c1.85,1.87,4.24,4.13,7.12,6.49c2.53,2.07,4.82,3.7,6.71,4.95C464.21,392.46,463.42,393.26,462.62,394.06z"/>
							<path class="st5" d="M465.2,391.85c1.28,1.91,2.92,4.18,4.97,6.69c2.34,2.86,4.58,5.26,6.47,7.14
								c-1.85-1.87-4.24-4.13-7.12-6.49c-2.53-2.07-4.82-3.7-6.71-4.95C463.61,393.45,464.4,392.65,465.2,391.85z"/>
							<path class="st5" d="M462.65,391.55c1.6-0.9,3.49-2.08,5.53-3.62c2.33-1.75,4.24-3.48,5.72-4.96
								c-1.47,1.44-3.22,3.34-4.99,5.69c-1.55,2.06-2.72,3.97-3.59,5.55C464.43,393.33,463.54,392.44,462.65,391.55z"/>
							<path class="st5" d="M465.17,394.36c-1.6,0.9-3.49,2.08-5.53,3.62c-2.33,1.75-4.24,3.48-5.72,4.96
								c1.47-1.44,3.22-3.34,4.99-5.69c1.55-2.06,2.72-3.97,3.59-5.55C463.39,392.59,464.28,393.48,465.17,394.36z"/>
							<path class="st4" d="M466.06,393.04c0,1.34-0.98,2.43-2.18,2.43c-1.2,0-2.18-1.09-2.18-2.43c0-1.34,0.98-2.43,2.18-2.43
								C465.09,390.62,466.06,391.7,466.06,393.04z"/>
						</g>
						<g>
							<path class="st5" d="M499.07,394.06c-1.28-1.91-2.92-4.18-4.97-6.69c-2.34-2.86-4.58-5.26-6.47-7.14
								c1.85,1.87,4.24,4.13,7.12,6.49c2.53,2.07,4.82,3.7,6.71,4.95C500.67,392.46,499.87,393.26,499.07,394.06z"/>
							<path class="st5" d="M501.65,391.85c1.28,1.91,2.92,4.18,4.97,6.69c2.34,2.86,4.58,5.26,6.47,7.14
								c-1.85-1.87-4.24-4.13-7.12-6.49c-2.53-2.07-4.82-3.7-6.71-4.95C500.06,393.45,500.85,392.65,501.65,391.85z"/>
							<path class="st5" d="M499.1,391.55c1.6-0.9,3.49-2.08,5.53-3.62c2.33-1.75,4.24-3.48,5.72-4.96
								c-1.47,1.44-3.22,3.34-4.99,5.69c-1.55,2.06-2.72,3.97-3.59,5.55C500.88,393.33,499.99,392.44,499.1,391.55z"/>
							<path class="st5" d="M501.62,394.36c-1.6,0.9-3.49,2.08-5.53,3.62c-2.33,1.75-4.24,3.48-5.72,4.96
								c1.47-1.44,3.22-3.34,4.99-5.69c1.55-2.06,2.72-3.97,3.59-5.55C499.84,392.59,500.73,393.48,501.62,394.36z"/>
							<path class="st4" d="M502.5,393.06c0,1.34-0.98,2.43-2.18,2.43c-1.2,0-2.18-1.09-2.18-2.43s0.98-2.43,2.18-2.43
								C501.53,390.63,502.5,391.72,502.5,393.06z"/>
						</g>
						<g>
							<path class="st5" d="M535.52,394.06c-1.28-1.91-2.92-4.18-4.97-6.69c-2.34-2.86-4.58-5.26-6.47-7.14
								c1.85,1.87,4.24,4.13,7.12,6.49c2.53,2.07,4.82,3.7,6.71,4.95C537.12,392.46,536.32,393.26,535.52,394.06z"/>
							<path class="st5" d="M538.1,391.85c1.28,1.91,2.92,4.18,4.97,6.69c2.34,2.86,4.58,5.26,6.47,7.14
								c-1.85-1.87-4.24-4.13-7.12-6.49c-2.53-2.07-4.82-3.7-6.71-4.95C536.51,393.45,537.3,392.65,538.1,391.85z"/>
							<path class="st5" d="M535.55,391.55c1.6-0.9,3.49-2.08,5.53-3.62c2.33-1.75,4.24-3.48,5.72-4.96
								c-1.47,1.44-3.22,3.34-4.99,5.69c-1.55,2.06-2.72,3.97-3.59,5.55C537.33,393.33,536.44,392.44,535.55,391.55z"/>
							<path class="st5" d="M538.07,394.36c-1.6,0.9-3.49,2.08-5.53,3.62c-2.33,1.75-4.24,3.48-5.72,4.96
								c1.47-1.44,3.22-3.34,4.99-5.69c1.55-2.06,2.72-3.97,3.59-5.55C536.29,392.59,537.18,393.48,538.07,394.36z"/>
							<path class="st4" d="M538.94,393.07c0,1.34-0.98,2.43-2.18,2.43s-2.18-1.09-2.18-2.43c0-1.34,0.98-2.43,2.18-2.43
								S538.94,391.73,538.94,393.07z"/>
						</g>
						<g>
							<path class="st5" d="M571.97,394.06c-1.28-1.91-2.92-4.18-4.97-6.69c-2.34-2.86-4.58-5.26-6.47-7.14
								c1.85,1.87,4.24,4.13,7.12,6.49c2.53,2.07,4.82,3.7,6.71,4.95C573.57,392.46,572.77,393.26,571.97,394.06z"/>
							<path class="st5" d="M574.55,391.85c1.28,1.91,2.92,4.18,4.97,6.69c2.34,2.86,4.58,5.26,6.47,7.14
								c-1.85-1.87-4.24-4.13-7.12-6.49c-2.53-2.07-4.82-3.7-6.71-4.95C572.96,393.45,573.76,392.65,574.55,391.85z"/>
							<path class="st5" d="M572,391.55c1.6-0.9,3.49-2.08,5.53-3.62c2.33-1.75,4.24-3.48,5.72-4.96c-1.47,1.44-3.22,3.34-4.99,5.69
								c-1.55,2.06-2.72,3.97-3.59,5.55C573.78,393.33,572.89,392.44,572,391.55z"/>
							<path class="st5" d="M574.52,394.36c-1.6,0.9-3.49,2.08-5.53,3.62c-2.33,1.75-4.24,3.48-5.72,4.96
								c1.47-1.44,3.22-3.34,4.99-5.69c1.55-2.06,2.72-3.97,3.59-5.55C572.74,392.59,573.63,393.48,574.52,394.36z"/>
							<path class="st4" d="M575.38,393.09c0,1.34-0.98,2.43-2.18,2.43c-1.2,0-2.18-1.09-2.18-2.43s0.98-2.43,2.18-2.43
								C574.4,390.66,575.38,391.75,575.38,393.09z"/>
						</g>
						<g>
							<path class="st5" d="M608.42,394.06c-1.28-1.91-2.92-4.18-4.97-6.69c-2.34-2.86-4.58-5.26-6.47-7.14
								c1.85,1.87,4.24,4.13,7.12,6.49c2.53,2.07,4.82,3.7,6.71,4.95C610.02,392.46,609.22,393.26,608.42,394.06z"/>
							<path class="st5" d="M611,391.85c1.28,1.91,2.92,4.18,4.97,6.69c2.34,2.86,4.58,5.26,6.47,7.14
								c-1.85-1.87-4.24-4.13-7.12-6.49c-2.53-2.07-4.82-3.7-6.71-4.95C609.41,393.45,610.21,392.65,611,391.85z"/>
							<path class="st5" d="M608.45,391.55c1.6-0.9,3.49-2.08,5.53-3.62c2.33-1.75,4.24-3.48,5.72-4.96
								c-1.47,1.44-3.22,3.34-4.99,5.69c-1.55,2.06-2.72,3.97-3.59,5.55C610.23,393.33,609.34,392.44,608.45,391.55z"/>
							<path class="st5" d="M610.97,394.36c-1.6,0.9-3.49,2.08-5.53,3.62c-2.33,1.75-4.24,3.48-5.72,4.96
								c1.47-1.44,3.22-3.34,4.99-5.69c1.55-2.06,2.72-3.97,3.59-5.55C609.19,392.59,610.08,393.48,610.97,394.36z"/>
							<path class="st4" d="M611.81,393.11c0,1.34-0.98,2.43-2.18,2.43c-1.2,0-2.18-1.09-2.18-2.43c0-1.34,0.98-2.43,2.18-2.43
								C610.84,390.68,611.81,391.77,611.81,393.11z"/>
						</g>
						<g>
							<path class="st5" d="M644.87,394.06c-1.28-1.91-2.92-4.18-4.97-6.69c-2.34-2.86-4.58-5.26-6.47-7.14
								c1.85,1.87,4.24,4.13,7.12,6.49c2.53,2.07,4.82,3.7,6.71,4.95C646.47,392.46,645.67,393.26,644.87,394.06z"/>
							<path class="st5" d="M647.45,391.85c1.28,1.91,2.92,4.18,4.97,6.69c2.34,2.86,4.58,5.26,6.47,7.14
								c-1.85-1.87-4.24-4.13-7.12-6.49c-2.53-2.07-4.82-3.7-6.71-4.95C645.86,393.45,646.66,392.65,647.45,391.85z"/>
							<path class="st5" d="M644.9,391.55c1.6-0.9,3.49-2.08,5.53-3.62c2.33-1.75,4.24-3.48,5.72-4.96
								c-1.47,1.44-3.22,3.34-4.99,5.69c-1.55,2.06-2.72,3.97-3.59,5.55C646.68,393.33,645.79,392.44,644.9,391.55z"/>
							<path class="st5" d="M647.42,394.36c-1.6,0.9-3.49,2.08-5.53,3.62c-2.33,1.75-4.24,3.48-5.72,4.96
								c1.47-1.44,3.22-3.34,4.99-5.69c1.55-2.06,2.72-3.97,3.59-5.55C645.64,392.59,646.53,393.48,647.42,394.36z"/>
							<path class="st4" d="M648.25,393.12c0,1.34-0.98,2.43-2.18,2.43c-1.2,0-2.18-1.09-2.18-2.43s0.98-2.43,2.18-2.43
								C647.28,390.7,648.25,391.78,648.25,393.12z"/>
						</g>
						<g>
							<path class="st5" d="M681.32,394.06c-1.28-1.91-2.92-4.18-4.97-6.69c-2.34-2.86-4.58-5.26-6.47-7.14
								c1.85,1.87,4.24,4.13,7.12,6.49c2.53,2.07,4.82,3.7,6.71,4.95C682.92,392.46,682.12,393.26,681.32,394.06z"/>
							<path class="st5" d="M683.9,391.85c1.28,1.91,2.92,4.18,4.97,6.69c2.34,2.86,4.58,5.26,6.47,7.14
								c-1.85-1.87-4.24-4.13-7.12-6.49c-2.53-2.07-4.82-3.7-6.71-4.95C682.31,393.45,683.11,392.65,683.9,391.85z"/>
							<path class="st5" d="M681.35,391.55c1.6-0.9,3.49-2.08,5.53-3.62c2.33-1.75,4.24-3.48,5.72-4.96
								c-1.47,1.44-3.22,3.34-4.99,5.69c-1.55,2.06-2.72,3.97-3.59,5.55C683.13,393.33,682.24,392.44,681.35,391.55z"/>
							<path class="st5" d="M683.87,394.36c-1.6,0.9-3.49,2.08-5.53,3.62c-2.33,1.75-4.24,3.48-5.72,4.96
								c1.47-1.44,3.22-3.34,4.99-5.69c1.55-2.06,2.72-3.97,3.59-5.55C682.09,392.59,682.98,393.48,683.87,394.36z"/>
							<path class="st4" d="M684.69,393.14c0,1.34-0.98,2.43-2.18,2.43s-2.18-1.09-2.18-2.43c0-1.34,0.98-2.43,2.18-2.43
								S684.69,391.8,684.69,393.14z"/>
						</g>
						<g>
							<path class="st5" d="M717.77,394.06c-1.28-1.91-2.92-4.18-4.97-6.69c-2.34-2.86-4.58-5.26-6.47-7.14
								c1.85,1.87,4.24,4.13,7.12,6.49c2.53,2.07,4.82,3.7,6.71,4.95C719.37,392.46,718.57,393.26,717.77,394.06z"/>
							<path class="st5" d="M720.35,391.85c1.28,1.91,2.92,4.18,4.97,6.69c2.34,2.86,4.58,5.26,6.47,7.14
								c-1.85-1.87-4.24-4.13-7.12-6.49c-2.53-2.07-4.82-3.7-6.71-4.95C718.76,393.45,719.56,392.65,720.35,391.85z"/>
							<path class="st5" d="M717.8,391.55c1.6-0.9,3.49-2.08,5.53-3.62c2.33-1.75,4.24-3.48,5.72-4.96
								c-1.47,1.44-3.22,3.34-4.99,5.69c-1.55,2.06-2.72,3.97-3.59,5.55C719.58,393.33,718.69,392.44,717.8,391.55z"/>
							<path class="st5" d="M720.32,394.36c-1.6,0.9-3.49,2.08-5.53,3.62c-2.33,1.75-4.24,3.48-5.72,4.96
								c1.47-1.44,3.22-3.34,4.99-5.69c1.55-2.06,2.72-3.97,3.59-5.55C718.54,392.59,719.43,393.48,720.32,394.36z"/>
							<path class="st4" d="M721.13,393.16c0,1.34-0.98,2.43-2.18,2.43s-2.18-1.09-2.18-2.43s0.98-2.43,2.18-2.43
								S721.13,391.82,721.13,393.16z"/>
						</g>
						<g>
							<path class="st5" d="M754.22,394.06c-1.28-1.91-2.92-4.18-4.97-6.69c-2.34-2.86-4.58-5.26-6.47-7.14
								c1.85,1.87,4.24,4.13,7.12,6.49c2.53,2.07,4.82,3.7,6.71,4.95C755.82,392.46,755.02,393.26,754.22,394.06z"/>
							<path class="st5" d="M756.81,391.85c1.28,1.91,2.92,4.18,4.97,6.69c2.34,2.86,4.58,5.26,6.47,7.14
								c-1.85-1.87-4.24-4.13-7.12-6.49c-2.53-2.07-4.82-3.7-6.71-4.95C755.21,393.45,756.01,392.65,756.81,391.85z"/>
							<path class="st5" d="M754.25,391.55c1.6-0.9,3.49-2.08,5.53-3.62c2.33-1.75,4.24-3.48,5.72-4.96
								c-1.47,1.44-3.22,3.34-4.99,5.69c-1.55,2.06-2.72,3.97-3.59,5.55C756.03,393.33,755.14,392.44,754.25,391.55z"/>
							<path class="st5" d="M756.77,394.36c-1.6,0.9-3.49,2.08-5.53,3.62c-2.33,1.75-4.24,3.48-5.72,4.96
								c1.47-1.44,3.22-3.34,4.99-5.69c1.55-2.06,2.72-3.97,3.59-5.55C755,392.59,755.88,393.48,756.77,394.36z"/>
							<path class="st4" d="M757.56,393.17c0,1.34-0.98,2.43-2.18,2.43s-2.18-1.09-2.18-2.43c0-1.34,0.98-2.43,2.18-2.43
								S757.56,391.83,757.56,393.17z"/>
						</g>
					</g>
				</g>
			</g>
		</g>
	</g>
	<g id="Цветной_00000172404589630233786950000010843985992295606939_">
		<g id="Цветной_00000061468859309546681540000003117696166814746536_">
			<g>
				<path class="st5" d="M115.01,586.16L115.01,586.16c-2.49,0-4.51-1.72-4.51-3.85v-87.56c0-2.13,2.02-3.85,4.51-3.85h0
					c2.49,0,4.51,1.72,4.51,3.85v87.56C119.52,584.43,117.5,586.16,115.01,586.16z"/>
				<g>
					<path class="st5" d="M215.74,499.79c-2.48-0.06-4.4-2.24-4.4-4.73V380.12c0-8.41-9.27-15.43-17.05-19.84
						c-23.72-13.45-32.4-13.34-56.64,0.3c-11.69,6.58-18.13,13.52-18.13,19.54l0,37.32c0,2.49-1.91,4.66-4.4,4.73
						c-2.55,0.07-4.64-1.98-4.64-4.52v-37.53c0-9.7,7.65-18.93,22.74-27.42c26.98-15.18,39.07-15.29,65.53-0.28
						c14.35,8.14,21.62,17.46,21.62,27.7v115.15C220.38,497.8,218.29,499.85,215.74,499.79z"/>
				</g>
				<path class="st3" d="M121.39,487.6h-12.77c-1.66,0-3-1.34-3-3v-56.57c0-1.66,1.34-3,3-3h12.77c1.66,0,3,1.34,3,3v56.57
					C124.39,486.26,123.05,487.6,121.39,487.6z"/>
				<path class="st3" d="M146.03,633.12c-0.03-0.03-0.07-0.06-0.1-0.09c-12.75-6.5-26.18-34.66-29.91-42.92
					c-0.39-0.87-1.63-0.87-2.02,0c-3.73,8.26-17.16,36.43-29.91,42.92c-0.03,0.03-0.07,0.06-0.1,0.09
					c-0.83,1.24-0.88,2.77-0.11,4.07c0.72,1.22,2.12,1.88,3.54,1.88l27.59,0l27.59,0c1.42,0,2.82-0.66,3.54-1.88
					C146.9,635.89,146.86,634.36,146.03,633.12z"/>
			</g>
			<g>
				<path class="st4" d="M276.87,638.71h-10.59c-1.15,0-2.09-0.94-2.09-2.09v-28.08c0-1.15,0.94-2.09,2.09-2.09h10.59
					c1.15,0,2.09,0.94,2.09,2.09v28.08C278.96,637.78,278.02,638.71,276.87,638.71z"/>
				<path class="st4" d="M164.94,638.71h-10.59c-1.15,0-2.09-0.94-2.09-2.09v-28.08c0-1.15,0.94-2.09,2.09-2.09h10.59
					c1.15,0,2.09,0.94,2.09,2.09v28.08C167.03,637.78,166.09,638.71,164.94,638.71z"/>
			</g>
			<path class="st3" d="M245.19,478.29h-18.07c-1.83,0-3.28,1.55-3.16,3.38l0.87,12.52c0,4.95-4.02,8.97-8.97,8.97
				c-4.95,0-8.97-4.02-8.97-8.97l0.86-12.52c0.13-1.83-1.32-3.38-3.16-3.38h-18.58c-14.57,0-26.38,11.81-26.38,26.38v115.61v4.4
				c0,6.41,5.2,11.61,11.61,11.61h88.72c6.41,0,11.61-5.2,11.61-11.61v-4.4V504.67C271.57,490.1,259.76,478.29,245.19,478.29z"/>
			<g id="Передние_колеса">
				<path class="st4" d="M207.37,638.94h-4.93c-1.15,0-2.09-0.94-2.09-2.09v-10.84c0-1.15,0.94-2.09,2.09-2.09h4.93
					c1.15,0,2.09,0.94,2.09,2.09v10.84C209.46,638,208.52,638.94,207.37,638.94z"/>
				<path class="st4" d="M229.28,638.94h-4.93c-1.15,0-2.09-0.94-2.09-2.09v-10.84c0-1.15,0.94-2.09,2.09-2.09h4.93
					c1.15,0,2.09,0.94,2.09,2.09v10.84C231.37,638,230.43,638.94,229.28,638.94z"/>
			</g>
			<path class="st6" d="M231.17,516.82c0-1.71-0.1-3.42-0.37-5.11c-1.53-9.74-6.4-17.52-14.37-23.31c-3.66-2.66-7.64-4.75-12.6-5.47
				c-0.96-0.14-1.82,0.62-1.78,1.59c0.1,2.31,0.15,4.53,0.52,6.69c0.51,2.97-0.2,5.63-2.55,7.33c-2.22,1.6-5.26,1.66-7.57,0.14
				c-2.37-1.56-3.25-4.28-2.79-7.24c0.36-2.28,0.47-4.6,0.64-7.09c0.07-1.01-0.85-1.83-1.84-1.62c0,0-0.01,0-0.01,0
				c-15.66,3.45-27.25,17.64-27.33,33.72c-0.1,18.94-0.04,37.88-0.02,56.83c0.01,6.22,3.83,10.08,10.04,10.09
				c16.55,0.03,33.1,0.02,49.66,0c6.69-0.01,10.4-3.73,10.4-10.37C231.19,554.28,231.19,535.55,231.17,516.82z M178.21,507.28h36.15
				c0.84,0,1.52,0.68,1.52,1.52s-0.68,1.52-1.52,1.52h-36.15c-0.84,0-1.52-0.68-1.52-1.52S177.37,507.28,178.21,507.28z
				 M178.21,515.56h36.15c0.84,0,1.52,0.68,1.52,1.52s-0.68,1.52-1.52,1.52h-36.15c-0.84,0-1.52-0.68-1.52-1.52
				S177.37,515.56,178.21,515.56z"/>
		</g>
		<g>
			<g>
				<circle class="st7" cx="183.15" cy="526.58" r="6.32"/>
				<path class="st5" d="M183.15,521.26c2.94,0,5.32,2.38,5.32,5.32c0,2.94-2.38,5.32-5.32,5.32s-5.32-2.38-5.32-5.32
					C177.84,523.65,180.22,521.26,183.15,521.26 M183.15,519.26c-4.03,0-7.32,3.28-7.32,7.32s3.28,7.32,7.32,7.32
					c4.03,0,7.32-3.28,7.32-7.32S187.19,519.26,183.15,519.26L183.15,519.26z"/>
			</g>
			<g>
				<circle class="st7" cx="215.86" cy="526.58" r="6.32"/>
				<path class="st5" d="M215.86,521.26c2.94,0,5.32,2.38,5.32,5.32c0,2.94-2.38,5.32-5.32,5.32s-5.32-2.38-5.32-5.32
					C210.55,523.65,212.93,521.26,215.86,521.26 M215.86,519.26c-4.03,0-7.32,3.28-7.32,7.32s3.28,7.32,7.32,7.32
					c4.03,0,7.32-3.28,7.32-7.32S219.9,519.26,215.86,519.26L215.86,519.26z"/>
			</g>
			<g>
				<circle class="st7" cx="248.57" cy="526.58" r="6.32"/>
				<path class="st5" d="M248.57,521.26c2.94,0,5.32,2.38,5.32,5.32c0,2.94-2.38,5.32-5.32,5.32s-5.32-2.38-5.32-5.32
					C243.26,523.65,245.64,521.26,248.57,521.26 M248.57,519.26c-4.03,0-7.32,3.28-7.32,7.32s3.28,7.32,7.32,7.32
					c4.03,0,7.32-3.28,7.32-7.32S252.61,519.26,248.57,519.26L248.57,519.26z"/>
			</g>
		</g>
		<g>
			<ellipse class="st4" cx="215.86" cy="578.07" rx="7.59" ry="26.64"/>
			<path class="st5" d="M223.45,551.43h-15.18l2.84,10.37c2.83,10.34,2.83,22.21,0,32.55l-2.84,10.37h15.18l-2.84-10.37
				c-2.83-10.34-2.83-22.21,0-32.55L223.45,551.43z"/>
		</g>
	</g>
	<g>
		<g>
			<path class="st8" d="M568.37,442.19c0,21.23-13.61,31.85-40.82,31.85H467.9c-1.06,0-1.98-0.38-2.75-1.16
				c-0.77-0.77-1.16-1.69-1.16-2.75v-93.51c0-1.06,0.38-1.98,1.16-2.75c0.77-0.77,1.69-1.16,2.75-1.16h58.19
				c13.7,0,23.81,2.49,30.33,7.46c6.51,4.97,9.77,12.47,9.77,22.51v0.43c0,4.63-1.26,8.59-3.76,11.87
				c-2.51,3.28-5.12,5.36-7.82,6.22c3.76,1.16,7,3.69,9.7,7.6C567.01,432.71,568.37,437.17,568.37,442.19z M525.45,408.68
				c1.01-1.4,1.52-2.97,1.52-4.7c0-1.74-0.51-3.23-1.52-4.49c-1.01-1.25-2.49-1.88-4.42-1.88h-19.4v13.17h19.4
				C522.96,410.78,524.43,410.08,525.45,408.68z M501.63,434.95v14.19h20.99c2.22,0,3.88-0.75,4.99-2.24
				c1.11-1.5,1.66-3.16,1.66-4.99v-0.14c0-1.83-0.6-3.42-1.81-4.78c-1.21-1.35-2.82-2.03-4.85-2.03H501.63z"/>
		</g>
		<g>
			<path class="st8" d="M661.44,372.71h26.49c1.06,0,1.98,0.39,2.75,1.16c0.77,0.77,1.16,1.69,1.16,2.75v93.51
				c0,1.06-0.39,1.98-1.16,2.75c-0.77,0.77-1.69,1.16-2.75,1.16h-26.2c-1.06,0-1.98-0.38-2.75-1.16c-0.77-0.77-1.16-1.69-1.16-2.75
				v-44.88l-10.57,20.85c-0.58,1.16-1.45,2.05-2.61,2.68c-1.16,0.63-2.32,0.94-3.47,0.94h-9.84c-1.64,0-2.99-0.43-4.05-1.3
				c-1.06-0.87-1.74-1.64-2.03-2.32l-10.57-20.85v44.88c0,1.06-0.39,1.98-1.16,2.75c-0.77,0.77-1.69,1.16-2.75,1.16h-26.2
				c-1.06,0-1.98-0.38-2.75-1.16c-0.77-0.77-1.16-1.69-1.16-2.75v-93.51c0-1.06,0.38-1.98,1.16-2.75c0.77-0.77,1.69-1.16,2.75-1.16
				h26.49c2.7,0,4.78,1.3,6.22,3.91l18.96,34.74l18.96-34.74C656.67,374.01,658.74,372.71,661.44,372.71z"/>
		</g>
	</g>
</g>
<g id="Цветной_00000043442324987931542430000018340415870988721060_" class="st9">
	<g id="Цветной_00000105409726117903128490000010504993047530814614_" class="st10">
		<g>
			<path class="st4" d="M797.42,668.63h12.13c1.15,0,2.09-0.94,2.09-2.09v-31.45c0-1.15-0.94-2.09-2.09-2.09h-12.13
				c-1.15,0-2.09,0.94-2.09,2.09v31.45C795.33,667.69,796.27,668.63,797.42,668.63z"/>
			<path class="st4" d="M921.04,668.63h12.13c1.15,0,2.09-0.94,2.09-2.09v-31.45c0-1.15-0.94-2.09-2.09-2.09h-12.13
				c-1.15,0-2.09,0.94-2.09,2.09v31.45C918.95,667.69,919.88,668.63,921.04,668.63z"/>
		</g>
		<path class="st3" d="M832.62,491.46h19.96c2.03,0,3.63,1.72,3.49,3.74l-0.96,13.83c0,5.47,4.43,9.91,9.91,9.91
			c5.47,0,9.91-4.43,9.91-9.91l-0.95-13.83c-0.14-2.02,1.46-3.74,3.49-3.74h20.52c16.09,0,29.13,13.04,29.13,29.13v127.67v4.86
			c0,7.08-5.74,12.82-12.82,12.82h-97.98c-7.08,0-12.82-5.74-12.82-12.82v-4.86V520.6C803.49,504.51,816.53,491.46,832.62,491.46z"
			/>
		<g id="Передние_колеса_00000179638854387085376070000005042315448571632769_">
			<path class="st4" d="M874.17,668.88h5.88c1.15,0,2.09-0.94,2.09-2.09v-12.41c0-1.15-0.94-2.09-2.09-2.09h-5.88
				c-1.15,0-2.09,0.94-2.09,2.09v12.41C872.09,667.94,873.02,668.88,874.17,668.88z"/>
			<path class="st4" d="M849.98,668.88h5.88c1.15,0,2.09-0.94,2.09-2.09v-12.41c0-1.15-0.94-2.09-2.09-2.09h-5.88
				c-1.15,0-2.09,0.94-2.09,2.09v12.41C847.89,667.94,848.82,668.88,849.98,668.88z"/>
		</g>
		<path class="st6" d="M848.11,534.02c0-1.89,0.11-3.78,0.41-5.64c1.69-10.75,7.06-19.34,15.87-25.74
			c4.04-2.94,8.44-5.25,13.91-6.05c1.06-0.15,2.01,0.68,1.96,1.75c-0.11,2.55-0.16,5-0.57,7.39c-0.57,3.28,0.22,6.22,2.82,8.09
			c2.45,1.77,5.81,1.83,8.36,0.15c2.62-1.73,3.59-4.73,3.08-8c-0.39-2.52-0.52-5.08-0.7-7.83c-0.08-1.12,0.93-2.02,2.03-1.79
			c0.01,0,0.01,0,0.02,0c17.3,3.82,30.1,19.48,30.19,37.24c0.11,20.92,0.04,41.84,0.02,62.76c-0.01,6.87-4.23,11.13-11.08,11.15
			c-18.28,0.03-36.56,0.02-54.84,0c-7.39-0.01-11.49-4.12-11.49-11.45C848.09,575.38,848.08,554.7,848.11,534.02z M906.6,523.48
			h-39.93c-0.93,0-1.68,0.75-1.68,1.68s0.75,1.68,1.68,1.68h39.93c0.93,0,1.68-0.75,1.68-1.68S907.53,523.48,906.6,523.48z
			 M906.6,532.62h-39.93c-0.93,0-1.68,0.75-1.68,1.68s0.75,1.68,1.68,1.68h39.93c0.93,0,1.68-0.75,1.68-1.68
			S907.53,532.62,906.6,532.62z"/>
	</g>
	<g class="st10">
		<path class="st3" d="M574.61,511.36c0.06-0.03,0.12-0.05,0.19-0.08c19.35-5.59,57.03-29.84,67.85-36.95
			c1.14-0.75,2.51-0.75,2.23,0c-2.59,7.11-10.6,31.36-1.79,36.95c0.01,0.03,0.03,0.05,0.04,0.08c-0.09,1.06-1.28,2.38-3.18,3.5
			c-1.79,1.05-3.87,1.62-5.43,1.62l-30.47,0l-30.47,0c-1.57,0-2.58-0.57-2.38-1.62C571.39,513.75,572.69,512.43,574.61,511.36z"/>
		<path class="st3" d="M699.18,436.45l7.37,12.76c0.83,1.43,2.66,1.93,4.1,1.1l54.65-31.55c1.43-0.83,1.93-2.66,1.1-4.1l-7.37-12.76
			c-0.83-1.43-2.66-1.93-4.1-1.1l-54.65,31.55C698.85,433.18,698.35,435.01,699.18,436.45z"/>
		<path class="st5" d="M646.06,473.44L646.06,473.44c1.38,2.38,3.44,3.77,4.61,3.09l48.14-27.79c1.17-0.68,1-3.15-0.37-5.54l0,0
			c-1.38-2.38-3.44-3.77-4.61-3.09l-48.14,27.79C644.52,468.58,644.69,471.06,646.06,473.44z"/>
	</g>
	<g class="st10">
		<g>
			<path class="st7" d="M901.14,551.66c-3.79,0-6.87-3.08-6.87-6.87s3.08-6.87,6.87-6.87s6.87,3.08,6.87,6.87
				S904.93,551.66,901.14,551.66z"/>
			<path class="st5" d="M901.14,538.92c3.24,0,5.87,2.63,5.87,5.87s-2.63,5.87-5.87,5.87s-5.87-2.63-5.87-5.87
				S897.9,538.92,901.14,538.92 M901.14,536.92c-4.34,0-7.87,3.53-7.87,7.87s3.53,7.87,7.87,7.87s7.87-3.53,7.87-7.87
				S905.48,536.92,901.14,536.92L901.14,536.92z"/>
		</g>
		<g>
			<circle class="st7" cx="865.01" cy="544.79" r="6.87"/>
			<path class="st5" d="M865.01,538.92c3.24,0,5.87,2.63,5.87,5.87s-2.63,5.87-5.87,5.87s-5.87-2.63-5.87-5.87
				S861.77,538.92,865.01,538.92 M865.01,536.92c-4.34,0-7.87,3.53-7.87,7.87s3.53,7.87,7.87,7.87s7.87-3.53,7.87-7.87
				S869.35,536.92,865.01,536.92L865.01,536.92z"/>
		</g>
		<g>
			<path class="st7" d="M828.89,551.66c-3.79,0-6.87-3.08-6.87-6.87s3.08-6.87,6.87-6.87s6.87,3.08,6.87,6.87
				S832.68,551.66,828.89,551.66z"/>
			<path class="st5" d="M828.89,538.92c3.24,0,5.87,2.63,5.87,5.87s-2.63,5.87-5.87,5.87s-5.87-2.63-5.87-5.87
				S825.65,538.92,828.89,538.92 M828.89,536.92c-4.34,0-7.87,3.53-7.87,7.87s3.53,7.87,7.87,7.87s7.87-3.53,7.87-7.87
				S833.23,536.92,828.89,536.92L828.89,536.92z"/>
		</g>
	</g>
	<g class="st10">
		<ellipse class="st4" cx="865.01" cy="601.65" rx="8.38" ry="29.42"/>
		<path class="st5" d="M856.63,572.23h16.76l-3.14,11.45c-3.13,11.42-3.13,24.52,0,35.94l3.14,11.45h-16.76l3.14-11.45
			c3.13-11.42,3.13-24.53,0-35.95L856.63,572.23z"/>
	</g>
	<path class="st11" d="M865.01,510.05v-86.72c0-16.55-10.11-31.43-25.51-37.52v0c-10.51-4.16-22.28-3.72-32.44,1.21l-37.64,18.25"/>
</g>
<text transform="matrix(1.163 0 0 1 84.9521 333.6517)" class="st5 st12 st13">preloved furniture</text>
<text transform="matrix(1 0 0 1 83.332 701.0078)" class="st5 st12 st13">your destiny for sofa</text>
</svg>
