<?xml version="1.0" encoding="utf-8"?>
<!-- Generator: Adobe Illustrator 26.5.0, SVG Export Plug-In . SVG Version: 6.00 Build 0)  -->
<svg version="1.1" id="Слой_1" xmlns="http://www.w3.org/2000/svg" xmlns:xlink="http://www.w3.org/1999/xlink" x="0px" y="0px"
	 viewBox="0 0 500 500" style="enable-background:new 0 0 500 500;" xml:space="preserve">
<style type="text/css">
	.st0{fill:#3C3C3B;}
	.st1{fill:#F9B233;}
	.st2{fill:#A67D52;}
	.st3{fill:#998675;}
	.st4{fill:#B0864B;}
	.st5{fill:#0081BC;}
	.st6{fill:#045A7D;}
	.st7{fill:#1E96D4;}
	.st8{fill:#FFFFFF;}
</style>
<rect x="0" class="st0" width="500" height="500"/>
<circle class="st1" cx="250" cy="250" r="250"/>
<g>
	<g>
		<g>
			<polygon class="st2" points="71.67,323.28 71.22,372.97 75.56,372.97 83.37,323.28 			"/>
			<polygon class="st3" points="73.4,372.97 75.56,372.97 83.37,323.28 80.29,323.28 			"/>
		</g>
		<g>
			<polygon class="st3" points="417.01,323.28 425.26,372.97 429.59,372.97 428.72,323.28 			"/>
			<polygon class="st4" points="427.44,372.97 429.59,372.97 428.72,323.28 425.63,323.28 			"/>
		</g>
		<path class="st5" d="M434.42,309.64H64.86c-2.45,0-4.44-1.99-4.44-4.44V172.84c0-25.3,20.51-45.81,45.81-45.81h286.83
			c25.3,0,45.81,20.51,45.81,45.81v132.35C438.86,307.65,436.87,309.64,434.42,309.64z"/>
		<path class="st6" d="M463.16,198.84L463.16,198.84c-43.25,0-85.11,17.07-93.49,38.12l-23.77,59.7l-189.71,3.56l-25.87-64.98
			c-8.38-21.05-50.24-38.12-93.49-38.12h0c-13.33,0-22.05,5.26-19.46,11.75l42.7,107.86c0.76,1.91,1.75,3.65,2.95,5.25
			c4.68,11.15,13.16,18.6,22.85,18.6h262.06c1.44,0.14,2.96,0.22,4.54,0.22h0c5.94,0,11.69-0.06,17.21-0.22h51.3
			c9.39,0,13.54-12.03,17.08-25.7l44.56-104.29C485.21,204.1,476.49,198.84,463.16,198.84z"/>
		<path class="st7" d="M230.07,250.08h1.49c-22.35-7.71-55.15-15.18-94.21-10.54c-17.11,2.03-32.27,6.01-45.16,10.54h1.49
			c-10.13,0-18.34,8.21-18.34,18.34v23.2c0,10.13,8.21,18.34,18.34,18.34h136.38c10.13,0,18.34-8.21,18.34-18.34v-23.2
			C248.41,258.29,240.2,250.08,230.07,250.08z"/>
		<g>
			<path class="st7" d="M404.44,250.08h1.36c-22.52-7.71-55.56-15.18-94.92-10.54c-17.24,2.03-32.51,6.01-45.5,10.54h1.36
				c-10.13,0-18.34,8.21-18.34,18.34v23.2c0,10.13,8.21,18.34,18.34,18.34h137.69c10.13,0,18.34-8.21,18.34-18.34v-23.2
				C422.78,258.29,414.57,250.08,404.44,250.08z"/>
			<path class="st5" d="M422.78,272.47c-17.82,7-48.63,16.61-88.01,16.47c-38.52-0.13-71.52-7.51-86.36-21.78
				c-13.76,13.27-48.26,21.91-87.35,21.78c-38.23-0.13-68.17-9.52-85.72-16.47c0,4.42-0.88,16.81-0.88,21.24
				c0,8.98,1.28,16.25,17.73,16.25h139.37c8.07,0,15.46-2.58,17.12-9.89c1.8,7.32,8.55,9.89,16.71,9.89H405.8
				c9.38,0,17.86-0.41,17.86-16.2L422.78,272.47z"/>
		</g>
	</g>
	<g>
		<g>
			<g>
				<g>
					<g>
						<path class="st7" d="M133.33,208.17c-1.3-1.94-2.97-4.25-5.06-6.8c-2.38-2.91-4.66-5.35-6.58-7.27c1.88,1.9,4.31,4.2,7.25,6.6
							c2.58,2.11,4.9,3.77,6.83,5.04C134.95,206.55,134.14,207.36,133.33,208.17z"/>
						<path class="st7" d="M135.95,205.93c1.3,1.94,2.97,4.25,5.06,6.8c2.38,2.91,4.66,5.35,6.58,7.27c-1.88-1.9-4.31-4.2-7.25-6.6
							c-2.58-2.11-4.9-3.77-6.83-5.04C134.33,207.55,135.14,206.74,135.95,205.93z"/>
						<path class="st7" d="M133.36,205.62c1.63-0.92,3.55-2.12,5.63-3.68c2.37-1.78,4.31-3.54,5.82-5.05
							c-1.5,1.47-3.28,3.4-5.07,5.79c-1.58,2.1-2.77,4.04-3.66,5.65C135.17,207.43,134.26,206.52,133.36,205.62z"/>
						<path class="st7" d="M135.92,208.48c-1.63,0.92-3.55,2.12-5.63,3.68c-2.37,1.78-4.31,3.54-5.82,5.05
							c1.5-1.47,3.28-3.4,5.07-5.79c1.58-2.1,2.77-4.04,3.66-5.65C134.11,206.68,135.02,207.58,135.92,208.48z"/>
						<path class="st6" d="M136.37,207.09c0,1.07-0.78,1.93-1.73,1.93c-0.96,0-1.73-0.86-1.73-1.93c0-1.07,0.78-1.93,1.73-1.93
							C135.6,205.16,136.37,206.03,136.37,207.09z"/>
					</g>
					<g>
						<path class="st7" d="M161.55,208.17c-1.3-1.94-2.97-4.25-5.06-6.8c-2.38-2.91-4.66-5.35-6.58-7.27c1.88,1.9,4.31,4.2,7.25,6.6
							c2.58,2.11,4.9,3.77,6.83,5.04C163.17,206.55,162.36,207.36,161.55,208.17z"/>
						<path class="st7" d="M164.18,205.93c1.3,1.94,2.97,4.25,5.06,6.8c2.38,2.91,4.66,5.35,6.58,7.27c-1.88-1.9-4.31-4.2-7.25-6.6
							c-2.58-2.11-4.9-3.77-6.83-5.04C162.55,207.55,163.36,206.74,164.18,205.93z"/>
						<path class="st7" d="M161.58,205.62c1.63-0.92,3.55-2.12,5.63-3.68c2.37-1.78,4.31-3.54,5.82-5.05
							c-1.5,1.47-3.28,3.4-5.07,5.79c-1.58,2.1-2.77,4.04-3.66,5.65C163.39,207.43,162.49,206.52,161.58,205.62z"/>
						<path class="st7" d="M164.14,208.48c-1.63,0.92-3.55,2.12-5.63,3.68c-2.37,1.78-4.31,3.54-5.82,5.05
							c1.5-1.47,3.28-3.4,5.07-5.79c1.58-2.1,2.77-4.04,3.66-5.65C162.33,206.68,163.24,207.58,164.14,208.48z"/>
						<path class="st6" d="M164.6,207.09c0,1.07-0.78,1.93-1.73,1.93c-0.96,0-1.73-0.86-1.73-1.93c0-1.07,0.78-1.93,1.73-1.93
							C163.82,205.16,164.6,206.03,164.6,207.09z"/>
					</g>
					<g>
						<path class="st7" d="M189.77,208.17c-1.3-1.94-2.97-4.25-5.06-6.8c-2.38-2.91-4.66-5.35-6.58-7.27c1.88,1.9,4.31,4.2,7.25,6.6
							c2.58,2.11,4.9,3.77,6.83,5.04C191.39,206.55,190.58,207.36,189.77,208.17z"/>
						<path class="st7" d="M192.4,205.93c1.3,1.94,2.97,4.25,5.06,6.8c2.38,2.91,4.66,5.35,6.58,7.27c-1.88-1.9-4.31-4.2-7.25-6.6
							c-2.58-2.11-4.9-3.77-6.83-5.04C190.78,207.55,191.59,206.74,192.4,205.93z"/>
						<path class="st7" d="M189.8,205.62c1.63-0.92,3.55-2.12,5.63-3.68c2.37-1.78,4.31-3.54,5.82-5.05
							c-1.5,1.47-3.28,3.4-5.07,5.79c-1.58,2.1-2.77,4.04-3.66,5.65C191.61,207.43,190.71,206.52,189.8,205.62z"/>
						<path class="st7" d="M192.37,208.48c-1.63,0.92-3.55,2.12-5.63,3.68c-2.37,1.78-4.31,3.54-5.82,5.05
							c1.5-1.47,3.28-3.4,5.07-5.79c1.58-2.1,2.77-4.04,3.66-5.65C190.56,206.68,191.46,207.58,192.37,208.48z"/>
						<path class="st6" d="M192.82,207.09c0,1.07-0.78,1.93-1.73,1.93s-1.73-0.86-1.73-1.93c0-1.07,0.78-1.93,1.73-1.93
							S192.82,206.03,192.82,207.09z"/>
					</g>
					<g>
						<path class="st7" d="M217.99,208.17c-1.3-1.94-2.97-4.25-5.06-6.8c-2.38-2.91-4.66-5.35-6.58-7.27c1.88,1.9,4.31,4.2,7.25,6.6
							c2.58,2.11,4.9,3.77,6.83,5.04C219.62,206.55,218.81,207.36,217.99,208.17z"/>
						<path class="st7" d="M220.62,205.93c1.3,1.94,2.97,4.25,5.06,6.8c2.38,2.91,4.66,5.35,6.58,7.27c-1.88-1.9-4.31-4.2-7.25-6.6
							c-2.58-2.11-4.9-3.77-6.83-5.04C219,207.55,219.81,206.74,220.62,205.93z"/>
						<path class="st7" d="M218.03,205.62c1.63-0.92,3.55-2.12,5.63-3.68c2.37-1.78,4.31-3.54,5.82-5.05
							c-1.5,1.47-3.28,3.4-5.07,5.79c-1.58,2.1-2.77,4.04-3.66,5.65C219.84,207.43,218.93,206.52,218.03,205.62z"/>
						<path class="st7" d="M220.59,208.48c-1.63,0.92-3.55,2.12-5.63,3.68c-2.37,1.78-4.31,3.54-5.82,5.05
							c1.5-1.47,3.28-3.4,5.07-5.79c1.58-2.1,2.77-4.04,3.66-5.65C218.78,206.68,219.68,207.58,220.59,208.48z"/>
						<path class="st6" d="M221.04,207.09c0,1.07-0.78,1.93-1.73,1.93s-1.73-0.86-1.73-1.93c0-1.07,0.78-1.93,1.73-1.93
							S221.04,206.03,221.04,207.09z"/>
					</g>
					<g>
						<path class="st7" d="M246.22,208.17c-1.3-1.94-2.97-4.25-5.06-6.8c-2.38-2.91-4.66-5.35-6.58-7.27c1.88,1.9,4.31,4.2,7.25,6.6
							c2.58,2.11,4.9,3.77,6.83,5.04C247.84,206.55,247.03,207.36,246.22,208.17z"/>
						<path class="st7" d="M248.84,205.93c1.3,1.94,2.97,4.25,5.06,6.8c2.38,2.91,4.66,5.35,6.58,7.27c-1.88-1.9-4.31-4.2-7.25-6.6
							c-2.58-2.11-4.9-3.77-6.83-5.04C247.22,207.55,248.03,206.74,248.84,205.93z"/>
						<path class="st7" d="M246.25,205.62c1.63-0.92,3.55-2.12,5.63-3.68c2.37-1.78,4.31-3.54,5.82-5.05
							c-1.5,1.47-3.28,3.4-5.07,5.79c-1.58,2.1-2.77,4.04-3.66,5.65C248.06,207.43,247.15,206.52,246.25,205.62z"/>
						<path class="st7" d="M248.81,208.48c-1.63,0.92-3.55,2.12-5.63,3.68c-2.37,1.78-4.31,3.54-5.82,5.05
							c1.5-1.47,3.28-3.4,5.07-5.79c1.58-2.1,2.77-4.04,3.66-5.65C247,206.68,247.91,207.58,248.81,208.48z"/>
						<path class="st6" d="M249.27,207.09c0,1.07-0.78,1.93-1.73,1.93c-0.96,0-1.73-0.86-1.73-1.93c0-1.07,0.78-1.93,1.73-1.93
							C248.49,205.16,249.27,206.03,249.27,207.09z"/>
					</g>
					<g>
						<path class="st7" d="M274.44,208.17c-1.3-1.94-2.97-4.25-5.06-6.8c-2.38-2.91-4.66-5.35-6.58-7.27c1.88,1.9,4.31,4.2,7.25,6.6
							c2.58,2.11,4.9,3.77,6.83,5.04C276.06,206.55,275.25,207.36,274.44,208.17z"/>
						<path class="st7" d="M277.07,205.93c1.3,1.94,2.97,4.25,5.06,6.8c2.38,2.91,4.66,5.35,6.58,7.27c-1.88-1.9-4.31-4.2-7.25-6.6
							c-2.58-2.11-4.9-3.77-6.83-5.04C275.44,207.55,276.26,206.74,277.07,205.93z"/>
						<path class="st7" d="M274.47,205.62c1.63-0.92,3.55-2.12,5.63-3.68c2.37-1.78,4.31-3.54,5.82-5.05
							c-1.5,1.47-3.28,3.4-5.07,5.79c-1.58,2.1-2.77,4.04-3.66,5.65C276.28,207.43,275.38,206.52,274.47,205.62z"/>
						<path class="st7" d="M277.03,208.48c-1.63,0.92-3.55,2.12-5.63,3.68c-2.37,1.78-4.31,3.54-5.82,5.05
							c1.5-1.47,3.28-3.4,5.07-5.79c1.58-2.1,2.77-4.04,3.66-5.65C275.23,206.68,276.13,207.58,277.03,208.48z"/>
						<path class="st6" d="M277.49,207.09c0,1.07-0.78,1.93-1.73,1.93c-0.96,0-1.73-0.86-1.73-1.93c0-1.07,0.78-1.93,1.73-1.93
							C276.71,205.16,277.49,206.03,277.49,207.09z"/>
					</g>
					<g>
						<path class="st7" d="M302.66,208.17c-1.3-1.94-2.97-4.25-5.06-6.8c-2.38-2.91-4.66-5.35-6.58-7.27c1.88,1.9,4.31,4.2,7.25,6.6
							c2.58,2.11,4.9,3.77,6.83,5.04C304.29,206.55,303.47,207.36,302.66,208.17z"/>
						<path class="st7" d="M305.29,205.93c1.3,1.94,2.97,4.25,5.06,6.8c2.38,2.91,4.66,5.35,6.58,7.27c-1.88-1.9-4.31-4.2-7.25-6.6
							c-2.58-2.11-4.9-3.77-6.83-5.04C303.67,207.55,304.48,206.74,305.29,205.93z"/>
						<path class="st7" d="M302.7,205.62c1.63-0.92,3.55-2.12,5.63-3.68c2.37-1.78,4.31-3.54,5.82-5.05
							c-1.5,1.47-3.28,3.4-5.07,5.79c-1.58,2.1-2.77,4.04-3.66,5.65C304.5,207.43,303.6,206.52,302.7,205.62z"/>
						<path class="st7" d="M305.26,208.48c-1.63,0.92-3.55,2.12-5.63,3.68c-2.37,1.78-4.31,3.54-5.82,5.05
							c1.5-1.47,3.28-3.4,5.07-5.79c1.58-2.1,2.77-4.04,3.66-5.65C303.45,206.68,304.35,207.58,305.26,208.48z"/>
						<path class="st6" d="M305.71,207.09c0,1.07-0.78,1.93-1.73,1.93c-0.96,0-1.73-0.86-1.73-1.93c0-1.07,0.78-1.93,1.73-1.93
							C304.93,205.16,305.71,206.03,305.71,207.09z"/>
					</g>
					<g>
						<path class="st7" d="M330.88,208.17c-1.3-1.94-2.97-4.25-5.06-6.8c-2.38-2.91-4.66-5.35-6.58-7.27c1.88,1.9,4.31,4.2,7.25,6.6
							c2.58,2.11,4.9,3.77,6.83,5.04C332.51,206.55,331.7,207.36,330.88,208.17z"/>
						<path class="st7" d="M333.51,205.93c1.3,1.94,2.97,4.25,5.06,6.8c2.38,2.91,4.66,5.35,6.58,7.27c-1.88-1.9-4.31-4.2-7.25-6.6
							c-2.58-2.11-4.9-3.77-6.83-5.04C331.89,207.55,332.7,206.74,333.51,205.93z"/>
						<path class="st7" d="M330.92,205.62c1.63-0.92,3.55-2.12,5.63-3.68c2.37-1.78,4.31-3.54,5.82-5.05
							c-1.5,1.47-3.28,3.4-5.07,5.79c-1.58,2.1-2.77,4.04-3.66,5.65C332.73,207.43,331.82,206.52,330.92,205.62z"/>
						<path class="st7" d="M333.48,208.48c-1.63,0.92-3.55,2.12-5.63,3.68c-2.37,1.78-4.31,3.54-5.82,5.05
							c1.5-1.47,3.28-3.4,5.07-5.79c1.58-2.1,2.77-4.04,3.66-5.65C331.67,206.68,332.58,207.58,333.48,208.48z"/>
						<path class="st6" d="M333.93,207.09c0,1.07-0.78,1.93-1.73,1.93c-0.96,0-1.73-0.86-1.73-1.93c0-1.07,0.78-1.93,1.73-1.93
							C333.16,205.16,333.93,206.03,333.93,207.09z"/>
					</g>
					<g>
						<path class="st7" d="M359.11,208.17c-1.3-1.94-2.97-4.25-5.06-6.8c-2.38-2.91-4.66-5.35-6.58-7.27c1.88,1.9,4.31,4.2,7.25,6.6
							c2.58,2.11,4.9,3.77,6.83,5.04C360.73,206.55,359.92,207.36,359.11,208.17z"/>
						<path class="st7" d="M361.74,205.93c1.3,1.94,2.97,4.25,5.06,6.8c2.38,2.91,4.66,5.35,6.58,7.27c-1.88-1.9-4.31-4.2-7.25-6.6
							c-2.58-2.11-4.9-3.77-6.83-5.04C360.11,207.55,360.92,206.74,361.74,205.93z"/>
						<path class="st7" d="M359.14,205.62c1.63-0.92,3.55-2.12,5.63-3.68c2.37-1.78,4.31-3.54,5.82-5.05
							c-1.5,1.47-3.28,3.4-5.07,5.79c-1.58,2.1-2.77,4.04-3.66,5.65C360.95,207.43,360.05,206.52,359.14,205.62z"/>
						<path class="st7" d="M361.7,208.48c-1.63,0.92-3.55,2.12-5.63,3.68c-2.37,1.78-4.31,3.54-5.82,5.05
							c1.5-1.47,3.28-3.4,5.07-5.79c1.58-2.1,2.77-4.04,3.66-5.65C359.89,206.68,360.8,207.58,361.7,208.48z"/>
						<path class="st6" d="M362.16,207.09c0,1.07-0.78,1.93-1.73,1.93s-1.73-0.86-1.73-1.93c0-1.07,0.78-1.93,1.73-1.93
							S362.16,206.03,362.16,207.09z"/>
					</g>
				</g>
			</g>
		</g>
		<g>
			<g>
				<g>
					<g>
						<path class="st7" d="M101.4,159.22c-1.02-1.52-2.33-3.33-3.96-5.33c-1.86-2.28-3.65-4.19-5.15-5.69
							c1.47,1.49,3.37,3.29,5.67,5.17c2.02,1.65,3.84,2.95,5.34,3.94C102.67,157.95,102.04,158.59,101.4,159.22z"/>
						<path class="st7" d="M103.46,157.47c1.02,1.52,2.33,3.33,3.96,5.33c1.86,2.28,3.65,4.19,5.15,5.69
							c-1.47-1.49-3.37-3.29-5.67-5.17c-2.02-1.65-3.84-2.95-5.34-3.94C102.19,158.74,102.82,158.1,103.46,157.47z"/>
						<path class="st7" d="M101.43,157.22c1.27-0.72,2.78-1.66,4.4-2.88c1.86-1.39,3.37-2.77,4.55-3.95
							c-1.17,1.15-2.57,2.66-3.97,4.53c-1.23,1.64-2.17,3.16-2.86,4.42C102.84,158.64,102.14,157.93,101.43,157.22z"/>
						<path class="st7" d="M103.43,159.47c-1.27,0.72-2.78,1.66-4.4,2.88c-1.86,1.39-3.37,2.77-4.55,3.95
							c1.17-1.15,2.57-2.66,3.97-4.53c1.23-1.64,2.17-3.16,2.86-4.42C102.02,158.05,102.73,158.76,103.43,159.47z"/>
						<path class="st6" d="M104.17,158.39c0,1.07-0.78,1.93-1.73,1.93c-0.96,0-1.73-0.86-1.73-1.93c0-1.07,0.78-1.93,1.73-1.93
							C103.39,156.45,104.17,157.32,104.17,158.39z"/>
					</g>
					<g>
						<path class="st7" d="M130.43,159.22c-1.02-1.52-2.33-3.33-3.96-5.33c-1.86-2.28-3.65-4.19-5.15-5.69
							c1.47,1.49,3.37,3.29,5.67,5.17c2.02,1.65,3.84,2.95,5.34,3.94C131.7,157.95,131.07,158.59,130.43,159.22z"/>
						<path class="st7" d="M132.49,157.47c1.02,1.52,2.33,3.33,3.96,5.33c1.86,2.28,3.65,4.19,5.15,5.69
							c-1.47-1.49-3.37-3.29-5.67-5.17c-2.02-1.65-3.84-2.95-5.34-3.94C131.22,158.74,131.85,158.1,132.49,157.47z"/>
						<path class="st7" d="M130.46,157.22c1.27-0.72,2.78-1.66,4.4-2.88c1.86-1.39,3.37-2.77,4.55-3.95
							c-1.17,1.15-2.57,2.66-3.97,4.53c-1.23,1.64-2.17,3.16-2.86,4.42C131.87,158.64,131.16,157.93,130.46,157.22z"/>
						<path class="st7" d="M132.46,159.47c-1.27,0.72-2.78,1.66-4.4,2.88c-1.86,1.39-3.37,2.77-4.55,3.95
							c1.17-1.15,2.57-2.66,3.97-4.53c1.23-1.64,2.17-3.16,2.86-4.42C131.05,158.05,131.75,158.76,132.46,159.47z"/>
						<path class="st6" d="M133.18,158.4c0,1.07-0.78,1.93-1.73,1.93s-1.73-0.86-1.73-1.93c0-1.07,0.78-1.93,1.73-1.93
							S133.18,157.33,133.18,158.4z"/>
					</g>
					<g>
						<path class="st7" d="M159.46,159.22c-1.02-1.52-2.33-3.33-3.96-5.33c-1.86-2.28-3.65-4.19-5.15-5.69
							c1.47,1.49,3.37,3.29,5.67,5.17c2.02,1.65,3.84,2.95,5.34,3.94C160.73,157.95,160.09,158.59,159.46,159.22z"/>
						<path class="st7" d="M161.52,157.47c1.02,1.52,2.33,3.33,3.96,5.33c1.86,2.28,3.65,4.19,5.15,5.69
							c-1.47-1.49-3.37-3.29-5.67-5.17c-2.02-1.65-3.84-2.95-5.34-3.94C160.25,158.74,160.88,158.1,161.52,157.47z"/>
						<path class="st7" d="M159.49,157.22c1.27-0.72,2.78-1.66,4.4-2.88c1.86-1.39,3.37-2.77,4.55-3.95
							c-1.17,1.15-2.57,2.66-3.97,4.53c-1.23,1.64-2.17,3.16-2.86,4.42C160.9,158.64,160.19,157.93,159.49,157.22z"/>
						<path class="st7" d="M161.49,159.47c-1.27,0.72-2.78,1.66-4.4,2.88c-1.86,1.39-3.37,2.77-4.55,3.95
							c1.17-1.15,2.57-2.66,3.97-4.53c1.23-1.64,2.17-3.16,2.86-4.42C160.07,158.05,160.78,158.76,161.49,159.47z"/>
						<path class="st6" d="M162.2,158.41c0,1.07-0.78,1.93-1.73,1.93s-1.73-0.86-1.73-1.93c0-1.07,0.78-1.93,1.73-1.93
							S162.2,157.35,162.2,158.41z"/>
					</g>
					<g>
						<path class="st7" d="M188.49,159.22c-1.02-1.52-2.33-3.33-3.96-5.33c-1.86-2.28-3.65-4.19-5.15-5.69
							c1.47,1.49,3.37,3.29,5.67,5.17c2.02,1.65,3.84,2.95,5.34,3.94C189.76,157.95,189.12,158.59,188.49,159.22z"/>
						<path class="st7" d="M190.54,157.47c1.02,1.52,2.33,3.33,3.96,5.33c1.86,2.28,3.65,4.19,5.15,5.69
							c-1.47-1.49-3.37-3.29-5.67-5.17c-2.02-1.65-3.84-2.95-5.34-3.94C189.27,158.74,189.91,158.1,190.54,157.47z"/>
						<path class="st7" d="M188.51,157.22c1.27-0.72,2.78-1.66,4.4-2.88c1.86-1.39,3.37-2.77,4.55-3.95
							c-1.17,1.15-2.57,2.66-3.97,4.53c-1.23,1.64-2.17,3.16-2.86,4.42C189.93,158.64,189.22,157.93,188.51,157.22z"/>
						<path class="st7" d="M190.52,159.47c-1.27,0.72-2.78,1.66-4.4,2.88c-1.86,1.39-3.37,2.77-4.55,3.95
							c1.17-1.15,2.57-2.66,3.97-4.53c1.23-1.64,2.17-3.16,2.86-4.42C189.1,158.05,189.81,158.76,190.52,159.47z"/>
						<path class="st6" d="M191.22,158.43c0,1.07-0.78,1.93-1.73,1.93c-0.96,0-1.73-0.86-1.73-1.93c0-1.07,0.78-1.93,1.73-1.93
							C190.44,156.49,191.22,157.36,191.22,158.43z"/>
					</g>
					<g>
						<path class="st7" d="M217.52,159.22c-1.02-1.52-2.33-3.33-3.96-5.33c-1.86-2.28-3.65-4.19-5.15-5.69
							c1.47,1.49,3.37,3.29,5.67,5.17c2.02,1.65,3.84,2.95,5.34,3.94C218.79,157.95,218.15,158.59,217.52,159.22z"/>
						<path class="st7" d="M219.57,157.47c1.02,1.52,2.33,3.33,3.96,5.33c1.86,2.28,3.65,4.19,5.15,5.69
							c-1.47-1.49-3.37-3.29-5.67-5.17c-2.02-1.65-3.84-2.95-5.34-3.94C218.3,158.74,218.94,158.1,219.57,157.47z"/>
						<path class="st7" d="M217.54,157.22c1.27-0.72,2.78-1.66,4.4-2.88c1.86-1.39,3.37-2.77,4.55-3.95
							c-1.17,1.15-2.57,2.66-3.97,4.53c-1.23,1.64-2.17,3.16-2.86,4.42C218.96,158.64,218.25,157.93,217.54,157.22z"/>
						<path class="st7" d="M219.55,159.47c-1.27,0.72-2.78,1.66-4.4,2.88c-1.86,1.39-3.37,2.77-4.55,3.95
							c1.17-1.15,2.57-2.66,3.97-4.53c1.23-1.64,2.17-3.16,2.86-4.42C218.13,158.05,218.84,158.76,219.55,159.47z"/>
						<path class="st6" d="M220.24,158.44c0,1.07-0.78,1.93-1.73,1.93c-0.96,0-1.73-0.86-1.73-1.93c0-1.07,0.78-1.93,1.73-1.93
							C219.46,156.51,220.24,157.37,220.24,158.44z"/>
					</g>
					<g>
						<path class="st7" d="M246.54,159.22c-1.02-1.52-2.33-3.33-3.96-5.33c-1.86-2.28-3.65-4.19-5.15-5.69
							c1.47,1.49,3.37,3.29,5.67,5.17c2.02,1.65,3.84,2.95,5.34,3.94C247.81,157.95,247.18,158.59,246.54,159.22z"/>
						<path class="st7" d="M248.6,157.47c1.02,1.52,2.33,3.33,3.96,5.33c1.86,2.28,3.65,4.19,5.15,5.69
							c-1.47-1.49-3.37-3.29-5.67-5.17c-2.02-1.65-3.84-2.95-5.34-3.94C247.33,158.74,247.97,158.1,248.6,157.47z"/>
						<path class="st7" d="M246.57,157.22c1.27-0.72,2.78-1.66,4.4-2.88c1.86-1.39,3.37-2.77,4.55-3.95
							c-1.17,1.15-2.57,2.66-3.97,4.53c-1.23,1.64-2.17,3.16-2.86,4.42C247.99,158.64,247.28,157.93,246.57,157.22z"/>
						<path class="st7" d="M248.57,159.47c-1.27,0.72-2.78,1.66-4.4,2.88c-1.86,1.39-3.37,2.77-4.55,3.95
							c1.17-1.15,2.57-2.66,3.97-4.53c1.23-1.64,2.17-3.16,2.86-4.42C247.16,158.05,247.87,158.76,248.57,159.47z"/>
						<path class="st6" d="M249.26,158.45c0,1.07-0.78,1.93-1.73,1.93c-0.96,0-1.73-0.86-1.73-1.93c0-1.07,0.78-1.93,1.73-1.93
							C248.48,156.52,249.26,157.38,249.26,158.45z"/>
					</g>
					<g>
						<path class="st7" d="M275.57,159.22c-1.02-1.52-2.33-3.33-3.96-5.33c-1.86-2.28-3.65-4.19-5.15-5.69
							c1.47,1.49,3.37,3.29,5.67,5.17c2.02,1.65,3.84,2.95,5.34,3.94C276.84,157.95,276.21,158.59,275.57,159.22z"/>
						<path class="st7" d="M277.63,157.47c1.02,1.52,2.33,3.33,3.96,5.33c1.86,2.28,3.65,4.19,5.15,5.69
							c-1.47-1.49-3.37-3.29-5.67-5.17c-2.02-1.65-3.84-2.95-5.34-3.94C276.36,158.74,276.99,158.1,277.63,157.47z"/>
						<path class="st7" d="M275.6,157.22c1.27-0.72,2.78-1.66,4.4-2.88c1.86-1.39,3.37-2.77,4.55-3.95
							c-1.17,1.15-2.57,2.66-3.97,4.53c-1.23,1.64-2.17,3.16-2.86,4.42C277.01,158.64,276.31,157.93,275.6,157.22z"/>
						<path class="st7" d="M277.6,159.47c-1.27,0.72-2.78,1.66-4.4,2.88c-1.86,1.39-3.37,2.77-4.55,3.95
							c1.17-1.15,2.57-2.66,3.97-4.53c1.23-1.64,2.17-3.16,2.86-4.42C276.19,158.05,276.9,158.76,277.6,159.47z"/>
						<path class="st6" d="M278.27,158.46c0,1.07-0.78,1.93-1.73,1.93s-1.73-0.86-1.73-1.93c0-1.07,0.78-1.93,1.73-1.93
							S278.27,157.4,278.27,158.46z"/>
					</g>
					<g>
						<path class="st7" d="M304.6,159.22c-1.02-1.52-2.33-3.33-3.96-5.33c-1.86-2.28-3.65-4.19-5.15-5.69
							c1.47,1.49,3.37,3.29,5.67,5.17c2.02,1.65,3.84,2.95,5.34,3.94C305.87,157.95,305.24,158.59,304.6,159.22z"/>
						<path class="st7" d="M306.66,157.47c1.02,1.52,2.33,3.33,3.96,5.33c1.86,2.28,3.65,4.19,5.15,5.69
							c-1.47-1.49-3.37-3.29-5.67-5.17c-2.02-1.65-3.84-2.95-5.34-3.94C305.39,158.74,306.02,158.1,306.66,157.47z"/>
						<path class="st7" d="M304.63,157.22c1.27-0.72,2.78-1.66,4.4-2.88c1.86-1.39,3.37-2.77,4.55-3.95
							c-1.17,1.15-2.57,2.66-3.97,4.53c-1.23,1.64-2.17,3.16-2.86,4.42C306.04,158.64,305.33,157.93,304.63,157.22z"/>
						<path class="st7" d="M306.63,159.47c-1.27,0.72-2.78,1.66-4.4,2.88c-1.86,1.39-3.37,2.77-4.55,3.95
							c1.17-1.15,2.57-2.66,3.97-4.53c1.23-1.64,2.17-3.16,2.86-4.42C305.22,158.05,305.92,158.76,306.63,159.47z"/>
						<path class="st6" d="M307.29,158.48c0,1.07-0.78,1.93-1.73,1.93c-0.96,0-1.73-0.86-1.73-1.93c0-1.07,0.78-1.93,1.73-1.93
							C306.52,156.54,307.29,157.41,307.29,158.48z"/>
					</g>
					<g>
						<path class="st7" d="M333.63,159.22c-1.02-1.52-2.33-3.33-3.96-5.33c-1.86-2.28-3.65-4.19-5.15-5.69
							c1.47,1.49,3.37,3.29,5.67,5.17c2.02,1.65,3.84,2.95,5.34,3.94C334.9,157.95,334.26,158.59,333.63,159.22z"/>
						<path class="st7" d="M335.69,157.47c1.02,1.52,2.33,3.33,3.96,5.33c1.86,2.28,3.65,4.19,5.15,5.69
							c-1.47-1.49-3.37-3.29-5.67-5.17c-2.02-1.65-3.84-2.95-5.34-3.94C334.41,158.74,335.05,158.1,335.69,157.47z"/>
						<path class="st7" d="M333.65,157.22c1.27-0.72,2.78-1.66,4.4-2.88c1.86-1.39,3.37-2.77,4.55-3.95
							c-1.17,1.15-2.57,2.66-3.97,4.53c-1.23,1.64-2.17,3.16-2.86,4.42C335.07,158.64,334.36,157.93,333.65,157.22z"/>
						<path class="st7" d="M335.66,159.47c-1.27,0.72-2.78,1.66-4.4,2.88c-1.86,1.39-3.37,2.77-4.55,3.95
							c1.17-1.15,2.57-2.66,3.97-4.53c1.23-1.64,2.17-3.16,2.86-4.42C334.24,158.05,334.95,158.76,335.66,159.47z"/>
						<path class="st6" d="M336.31,158.49c0,1.07-0.78,1.93-1.73,1.93s-1.73-0.86-1.73-1.93c0-1.07,0.78-1.93,1.73-1.93
							S336.31,157.42,336.31,158.49z"/>
					</g>
					<g>
						<path class="st7" d="M362.66,159.22c-1.02-1.52-2.33-3.33-3.96-5.33c-1.86-2.28-3.65-4.19-5.15-5.69
							c1.47,1.49,3.37,3.29,5.67,5.17c2.02,1.65,3.84,2.95,5.34,3.94C363.93,157.95,363.29,158.59,362.66,159.22z"/>
						<path class="st7" d="M364.71,157.47c1.02,1.52,2.33,3.33,3.96,5.33c1.86,2.28,3.65,4.19,5.15,5.69
							c-1.47-1.49-3.37-3.29-5.67-5.17c-2.02-1.65-3.84-2.95-5.34-3.94C363.44,158.74,364.08,158.1,364.71,157.47z"/>
						<path class="st7" d="M362.68,157.22c1.27-0.72,2.78-1.66,4.4-2.88c1.86-1.39,3.37-2.77,4.55-3.95
							c-1.17,1.15-2.57,2.66-3.97,4.53c-1.23,1.64-2.17,3.16-2.86,4.42C364.1,158.64,363.39,157.93,362.68,157.22z"/>
						<path class="st7" d="M364.69,159.47c-1.27,0.72-2.78,1.66-4.4,2.88c-1.86,1.39-3.37,2.77-4.55,3.95
							c1.17-1.15,2.57-2.66,3.97-4.53c1.23-1.64,2.17-3.16,2.86-4.42C363.27,158.05,363.98,158.76,364.69,159.47z"/>
						<path class="st6" d="M365.33,158.5c0,1.07-0.78,1.93-1.73,1.93c-0.96,0-1.73-0.86-1.73-1.93c0-1.07,0.78-1.93,1.73-1.93
							C364.55,156.57,365.33,157.44,365.33,158.5z"/>
					</g>
					<g>
						<path class="st7" d="M391.69,159.22c-1.02-1.52-2.33-3.33-3.96-5.33c-1.86-2.28-3.65-4.19-5.15-5.69
							c1.47,1.49,3.37,3.29,5.67,5.17c2.02,1.65,3.84,2.95,5.34,3.94C392.96,157.95,392.32,158.59,391.69,159.22z"/>
						<path class="st7" d="M393.74,157.47c1.02,1.52,2.33,3.33,3.96,5.33c1.86,2.28,3.65,4.19,5.15,5.69
							c-1.47-1.49-3.37-3.29-5.67-5.17c-2.02-1.65-3.84-2.95-5.34-3.94C392.47,158.74,393.11,158.1,393.74,157.47z"/>
						<path class="st7" d="M391.71,157.22c1.27-0.72,2.78-1.66,4.4-2.88c1.86-1.39,3.37-2.77,4.55-3.95
							c-1.17,1.15-2.57,2.66-3.97,4.53c-1.23,1.64-2.17,3.16-2.86,4.42C393.13,158.64,392.42,157.93,391.71,157.22z"/>
						<path class="st7" d="M393.72,159.47c-1.27,0.72-2.78,1.66-4.4,2.88c-1.86,1.39-3.37,2.77-4.55,3.95
							c1.17-1.15,2.57-2.66,3.97-4.53c1.23-1.64,2.17-3.16,2.86-4.42C392.3,158.05,393.01,158.76,393.72,159.47z"/>
						<path class="st6" d="M394.35,158.52c0,1.07-0.78,1.93-1.73,1.93s-1.73-0.86-1.73-1.93c0-1.07,0.78-1.93,1.73-1.93
							S394.35,157.45,394.35,158.52z"/>
					</g>
				</g>
			</g>
		</g>
	</g>
	<g>
		<g>
			<path class="st8" d="M398.02,287.74c0,0,0,21.9-21.9,21.9c21.9,0,21.9,21.9,21.9,21.9s0-21.9,21.9-21.9
				C398.02,309.64,398.02,287.74,398.02,287.74z"/>
		</g>
		<g>
			<path class="st8" d="M385.28,277.12c0,0,0,7.17-7.17,7.17c7.17,0,7.17,7.17,7.17,7.17s0-7.17,7.17-7.17
				C385.28,284.29,385.28,277.12,385.28,277.12z"/>
		</g>
		<g>
			<path class="st8" d="M377.15,298.26c0,0,0,3.98-3.98,3.98c3.98,0,3.98,3.98,3.98,3.98s0-3.98,3.98-3.98
				C377.15,302.24,377.15,298.26,377.15,298.26z"/>
		</g>
	</g>
	<g>
		<g>
			<path class="st8" d="M62.62,228.18c0,0,0,21.9-21.9,21.9c21.9,0,21.9,21.9,21.9,21.9s0-21.9,21.9-21.9
				C62.62,250.08,62.62,228.18,62.62,228.18z"/>
		</g>
		<g>
			<path class="st8" d="M87.31,229.5c0,0,0,7.17-7.17,7.17c7.17,0,7.17,7.17,7.17,7.17s0-7.17,7.17-7.17
				C87.31,236.67,87.31,229.5,87.31,229.5z"/>
		</g>
		<g>
			<path class="st8" d="M74.41,262.59c0,0,0,3.98-3.98,3.98c3.98,0,3.98,3.98,3.98,3.98s0-3.98,3.98-3.98
				C74.41,266.57,74.41,262.59,74.41,262.59z"/>
		</g>
	</g>
</g>
<g>
	<g>
		<path class="st8" d="M242.05,201.67c0,17.67-11.33,26.51-33.98,26.51h-49.64c-0.88,0-1.65-0.32-2.29-0.96
			c-0.64-0.64-0.96-1.4-0.96-2.29v-77.83c0-0.88,0.32-1.65,0.96-2.29c0.64-0.64,1.4-0.96,2.29-0.96h48.44
			c11.4,0,19.82,2.07,25.24,6.21c5.42,4.14,8.13,10.38,8.13,18.74v0.36c0,3.86-1.04,7.15-3.13,9.88c-2.09,2.73-4.26,4.46-6.51,5.18
			c3.13,0.96,5.82,3.07,8.07,6.33C240.92,193.78,242.05,197.49,242.05,201.67z M206.32,173.78c0.84-1.16,1.26-2.47,1.26-3.92
			c0-1.45-0.42-2.69-1.26-3.73c-0.84-1.04-2.07-1.57-3.67-1.57H186.5v10.96h16.15C204.26,175.52,205.48,174.94,206.32,173.78z
			 M186.5,195.64v11.81h17.47c1.85,0,3.23-0.62,4.16-1.87c0.92-1.24,1.39-2.63,1.39-4.16v-0.12c0-1.53-0.5-2.85-1.51-3.98
			c-1.01-1.12-2.35-1.69-4.04-1.69H186.5z"/>
	</g>
	<g>
		<path class="st8" d="M319.52,143.83h22.05c0.88,0,1.65,0.32,2.29,0.96c0.64,0.64,0.96,1.41,0.96,2.29v77.83
			c0,0.88-0.32,1.65-0.96,2.29c-0.64,0.64-1.41,0.96-2.29,0.96h-21.81c-0.88,0-1.65-0.32-2.29-0.96c-0.64-0.64-0.96-1.4-0.96-2.29
			v-37.35l-8.8,17.35c-0.48,0.96-1.2,1.71-2.17,2.23c-0.96,0.52-1.93,0.78-2.89,0.78h-8.19c-1.37,0-2.49-0.36-3.37-1.08
			c-0.88-0.72-1.45-1.36-1.69-1.93l-8.8-17.35v37.35c0,0.88-0.32,1.65-0.96,2.29c-0.64,0.64-1.41,0.96-2.29,0.96h-21.81
			c-0.88,0-1.65-0.32-2.29-0.96c-0.64-0.64-0.96-1.4-0.96-2.29v-77.83c0-0.88,0.32-1.65,0.96-2.29c0.64-0.64,1.4-0.96,2.29-0.96
			h22.05c2.25,0,3.98,1.08,5.18,3.25L298.56,176l15.78-28.92C315.54,144.92,317.27,143.83,319.52,143.83z"/>
	</g>
</g>
</svg>
